<svg viewBox="0 0 900 675" fill="none" xmlns="http://www.w3.org/2000/svg">
  <!-- Background wall -->
  <rect width="900" height="675" fill="#F4EFE3"/>
  <!-- Warm light from windows -->
  <radialGradient id="winLight" cx="72%" cy="18%" r="55%">
    <stop offset="0%" stop-color="#FFF8ED" stop-opacity="0.9"/>
    <stop offset="100%" stop-color="#F4EFE3" stop-opacity="0"/>
  </radialGradient>
  <rect width="900" height="675" fill="url(#winLight)"/>

  <!-- Floor -->
  <rect x="0" y="460" width="900" height="215" rx="0" fill="#DDD5C4"/>
  <!-- Floor shadow -->
  <rect x="0" y="460" width="900" height="14" fill="#C9C1B0" opacity="0.5"/>

  <!-- Round reading rug -->
  <ellipse cx="450" cy="520" rx="230" ry="60" fill="#D4896A" opacity="0.35"/>
  <ellipse cx="450" cy="520" rx="195" ry="50" fill="#E2845F" opacity="0.18"/>

  <!-- Back wall baseboard -->
  <rect x="0" y="440" width="900" height="20" fill="#E8E0D0"/>

  <!-- Left window -->
  <rect x="60" y="60" width="160" height="240" rx="12" fill="#D4EDD4" opacity="0.9"/>
  <rect x="60" y="60" width="160" height="240" rx="12" stroke="#2F4A3A" stroke-width="6" fill="none"/>
  <!-- Window cross -->
  <line x1="140" y1="60" x2="140" y2="300" stroke="#2F4A3A" stroke-width="4"/>
  <line x1="60" y1="178" x2="220" y2="178" stroke="#2F4A3A" stroke-width="4"/>
  <!-- Window light rays -->
  <rect x="60" y="60" width="160" height="240" rx="12" fill="url(#winLight)" opacity="0.5"/>

  <!-- Right window -->
  <rect x="660" y="80" width="150" height="200" rx="12" fill="#D4EDD4" opacity="0.9"/>
  <rect x="660" y="80" width="150" height="200" rx="12" stroke="#2F4A3A" stroke-width="5" fill="none"/>
  <line x1="735" y1="80" x2="735" y2="280" stroke="#2F4A3A" stroke-width="3.5"/>
  <line x1="660" y1="178" x2="810" y2="178" stroke="#2F4A3A" stroke-width="3.5"/>

  <!-- Wall art / children's artwork left -->
  <rect x="260" y="80" width="90" height="72" rx="6" fill="white" stroke="#DDD5C4" stroke-width="2"/>
  <!-- Simple sun drawing -->
  <circle cx="305" cy="116" r="14" fill="#F6C84B" opacity="0.85"/>
  <line x1="305" y1="96" x2="305" y2="89" stroke="#F6C84B" stroke-width="2.5" stroke-linecap="round"/>
  <line x1="305" y1="136" x2="305" y2="143" stroke="#F6C84B" stroke-width="2.5" stroke-linecap="round"/>
  <line x1="285" y1="116" x2="278" y2="116" stroke="#F6C84B" stroke-width="2.5" stroke-linecap="round"/>
  <line x1="325" y1="116" x2="332" y2="116" stroke="#F6C84B" stroke-width="2.5" stroke-linecap="round"/>
  <!-- Green hill -->
  <ellipse cx="295" cy="140" rx="22" ry="10" fill="#6EB76F" opacity="0.7"/>
  <ellipse cx="318" cy="141" rx="16" ry="8" fill="#AEC1B0" opacity="0.6"/>

  <!-- Wall art right -->
  <rect x="370" y="70" width="80" height="64" rx="6" fill="white" stroke="#DDD5C4" stroke-width="2"/>
  <!-- Rainbow -->
  <path d="M 376 124 Q 394 88 410 124" stroke="#E2845F" stroke-width="3" fill="none" stroke-linecap="round"/>
  <path d="M 380 124 Q 397 96 415 124" stroke="#F6C84B" stroke-width="3" fill="none" stroke-linecap="round"/>
  <path d="M 384 124 Q 401 103 420 124" stroke="#6EB76F" stroke-width="3" fill="none" stroke-linecap="round"/>
  <path d="M 388 124 Q 405 110 424 124" stroke="#AEC1B0" stroke-width="3" fill="none" stroke-linecap="round"/>

  <!-- ABC banner -->
  <rect x="240" y="160" width="300" height="26" rx="6" fill="#2F4A3A" opacity="0.12"/>
  <text x="252" y="178" font-family="Georgia, serif" font-size="13" fill="#2F4A3A" opacity="0.65" font-weight="600" letter-spacing="8">A  B  C  D  E  F  G  H</text>

  <!-- Big plant left foreground -->
  <rect x="15" y="350" width="48" height="120" rx="8" fill="#8C7B60"/>
  <!-- Plant pot -->
  <ellipse cx="39" cy="470" rx="26" ry="8" fill="#7A6A52"/>
  <!-- Plant stems -->
  <path d="M 39 350 C 20 310 5 270 18 230" stroke="#2F4A3A" stroke-width="4" stroke-linecap="round" fill="none"/>
  <path d="M 39 350 C 55 305 70 270 55 230" stroke="#2F4A3A" stroke-width="3.5" stroke-linecap="round" fill="none"/>
  <path d="M 39 380 C 15 355 -5 330 10 310" stroke="#2F4A3A" stroke-width="3" stroke-linecap="round" fill="none"/>
  <!-- Plant leaves -->
  <ellipse cx="16" cy="225" rx="22" ry="35" fill="#2F4A3A" transform="rotate(-20 16 225)" opacity="0.9"/>
  <ellipse cx="58" cy="228" rx="20" ry="32" fill="#6EB76F" transform="rotate(18 58 228)" opacity="0.85"/>
  <ellipse cx="8" cy="308" rx="18" ry="28" fill="#AEC1B0" transform="rotate(-30 8 308)" opacity="0.8"/>
  <ellipse cx="39" cy="210" rx="14" ry="26" fill="#2F4A3A" opacity="0.7"/>

  <!-- Small plant right side -->
  <rect x="825" y="400" width="35" height="70" rx="6" fill="#9C8B72"/>
  <ellipse cx="842" cy="400" rx="19" ry="6" fill="#8A7A62"/>
  <path d="M 842 400 C 825 370 820 340 835 320" stroke="#6EB76F" stroke-width="3" fill="none" stroke-linecap="round"/>
  <path d="M 842 400 C 858 365 868 340 855 315" stroke="#2F4A3A" stroke-width="3" fill="none" stroke-linecap="round"/>
  <ellipse cx="833" cy="318" rx="16" ry="24" fill="#6EB76F" transform="rotate(-15 833 318)" opacity="0.85"/>
  <ellipse cx="857" cy="313" rx="14" ry="22" fill="#AEC1B0" transform="rotate(20 857 313)" opacity="0.8"/>

  <!-- Low table center -->
  <rect x="260" y="390" width="380" height="20" rx="8" fill="#C4A882"/>
  <!-- Table legs -->
  <rect x="290" y="408" width="14" height="55" rx="5" fill="#B89870"/>
  <rect x="600" y="408" width="14" height="55" rx="5" fill="#B89870"/>

  <!-- Left low table -->
  <rect x="90" y="410" width="200" height="16" rx="7" fill="#CEBEA0"/>
  <rect x="110" y="424" width="12" height="45" rx="4" fill="#BEAE90"/>
  <rect x="265" y="424" width="12" height="45" rx="4" fill="#BEAE90"/>

  <!-- Activity on center table: paper, crayons, paint jars -->
  <rect x="300" y="370" width="45" height="35" rx="3" fill="white" transform="rotate(-8 300 370)"/>
  <rect x="355" y="368" width="45" height="35" rx="3" fill="#FFF5E0" transform="rotate(4 355 368)"/>
  <rect x="410" y="372" width="40" height="30" rx="3" fill="white" transform="rotate(-3 410 372)"/>
  <!-- Paint jars -->
  <rect x="480" y="366" width="16" height="22" rx="4" fill="#E2845F" opacity="0.85"/>
  <rect x="500" y="366" width="16" height="22" rx="4" fill="#6EB76F" opacity="0.85"/>
  <rect x="520" y="366" width="16" height="22" rx="4" fill="#AEC1B0" opacity="0.8"/>
  <!-- Crayon scattered -->
  <rect x="290" y="393" width="32" height="6" rx="3" fill="#F6C84B" transform="rotate(-20 290 393)"/>
  <rect x="440" y="396" width="28" height="5" rx="2.5" fill="#E2845F" transform="rotate(15 440 396)"/>

  <!-- CHILD 1 — sitting left at left table, facing center -->
  <!-- Legs on stool -->
  <rect x="145" y="430" width="12" height="40" rx="4" fill="#C9A87C"/>
  <rect x="165" y="430" width="12" height="40" rx="4" fill="#C9A87C"/>
  <!-- Small stool -->
  <rect x="132" y="425" width="54" height="10" rx="4" fill="#B89870"/>
  <!-- Body -->
  <rect x="138" y="340" width="66" height="90" rx="18" fill="#E2845F" opacity="0.9"/>
  <!-- Arms -->
  <rect x="120" y="360" width="22" height="12" rx="6" fill="#E2845F" opacity="0.85" transform="rotate(20 120 360)"/>
  <rect x="200" y="358" width="22" height="12" rx="6" fill="#E2845F" opacity="0.85" transform="rotate(-15 200 358)"/>
  <!-- Head -->
  <circle cx="171" cy="312" r="36" fill="#F4C98E"/>
  <!-- Hair -->
  <path d="M 138 302 Q 150 270 171 268 Q 192 270 204 302 Q 192 285 171 283 Q 150 285 138 302 Z" fill="#8B5E3C"/>
  <!-- Eyes -->
  <circle cx="160" cy="310" r="4.5" fill="#3A2B1A"/>
  <circle cx="182" cy="310" r="4.5" fill="#3A2B1A"/>
  <circle cx="162" cy="308" r="1.5" fill="white"/>
  <circle cx="184" cy="308" r="1.5" fill="white"/>
  <!-- Smile -->
  <path d="M 162 322 Q 171 330 180 322" stroke="#8B5E3C" stroke-width="2" fill="none" stroke-linecap="round"/>

  <!-- CHILD 2 — sitting at center table, facing us -->
  <rect x="353" y="435" width="12" height="38" rx="4" fill="#D4A882"/>
  <rect x="373" y="435" width="12" height="38" rx="4" fill="#D4A882"/>
  <rect x="342" y="428" width="52" height="10" rx="4" fill="#B89870"/>
  <!-- Body -->
  <rect x="348" y="348" width="62" height="84" rx="18" fill="#AEC1B0" opacity="0.95"/>
  <!-- Arms pointing down at table -->
  <rect x="332" y="368" width="18" height="12" rx="6" fill="#AEC1B0" opacity="0.9" transform="rotate(25 332 368)"/>
  <rect x="408" y="368" width="18" height="12" rx="6" fill="#AEC1B0" opacity="0.9" transform="rotate(-25 408 368)"/>
  <!-- Head -->
  <circle cx="379" cy="318" r="34" fill="#F2D4A6"/>
  <!-- Hair (ponytails) -->
  <path d="M 347 308 Q 360 275 379 273 Q 398 275 411 308 Q 398 288 379 286 Q 360 288 347 308 Z" fill="#2C1A0E"/>
  <!-- Pigtail decorations -->
  <circle cx="348" cy="300" r="6" fill="#E2845F" opacity="0.8"/>
  <circle cx="410" cy="300" r="6" fill="#E2845F" opacity="0.8"/>
  <!-- Eyes -->
  <circle cx="369" cy="316" r="4" fill="#2C1A0E"/>
  <circle cx="389" cy="316" r="4" fill="#2C1A0E"/>
  <circle cx="370.5" cy="314.5" r="1.3" fill="white"/>
  <circle cx="390.5" cy="314.5" r="1.3" fill="white"/>
  <!-- Happy expression -->
  <path d="M 370 328 Q 379 335 388 328" stroke="#8B5E3C" stroke-width="2" fill="none" stroke-linecap="round"/>
  <!-- Rosy cheeks -->
  <circle cx="358" cy="326" r="7" fill="#F4A18A" opacity="0.3"/>
  <circle cx="400" cy="326" r="7" fill="#F4A18A" opacity="0.3"/>

  <!-- CHILD 3 — sitting right at center table -->
  <rect x="490" y="435" width="12" height="38" rx="4" fill="#C9A87C"/>
  <rect x="510" y="435" width="12" height="38" rx="4" fill="#C9A87C"/>
  <rect x="478" y="428" width="52" height="10" rx="4" fill="#B89870"/>
  <!-- Body -->
  <rect x="484" y="350" width="60" height="82" rx="18" fill="#6EB76F" opacity="0.9"/>
  <!-- Arms -->
  <rect x="468" y="368" width="18" height="11" rx="5.5" fill="#6EB76F" opacity="0.85" transform="rotate(22 468 368)"/>
  <rect x="542" y="370" width="18" height="11" rx="5.5" fill="#6EB76F" opacity="0.85" transform="rotate(-18 542 370)"/>
  <!-- Head -->
  <circle cx="514" cy="322" r="33" fill="#E8C090"/>
  <!-- Hair -->
  <path d="M 484 314 Q 496 282 514 280 Q 532 282 544 314 Q 532 294 514 292 Q 496 294 484 314 Z" fill="#5C3D1E"/>
  <!-- Eyes -->
  <circle cx="504" cy="319" r="4" fill="#2C1A0E"/>
  <circle cx="524" cy="319" r="4" fill="#2C1A0E"/>
  <circle cx="505.5" cy="317.5" r="1.3" fill="white"/>
  <circle cx="525.5" cy="317.5" r="1.3" fill="white"/>
  <!-- Smile -->
  <path d="M 505 331 Q 514 338 523 331" stroke="#6B4226" stroke-width="2" fill="none" stroke-linecap="round"/>
  <!-- Rosy cheeks -->
  <circle cx="494" cy="329" r="7" fill="#F4A18A" opacity="0.28"/>
  <circle cx="534" cy="329" r="7" fill="#F4A18A" opacity="0.28"/>

  <!-- EDUCATOR — standing right, leaning forward toward table -->
  <!-- Legs -->
  <rect x="662" y="430" width="16" height="60" rx="6" fill="#2F4A3A"/>
  <rect x="688" y="432" width="16" height="58" rx="6" fill="#2F4A3A"/>
  <!-- Shoes -->
  <ellipse cx="670" cy="492" rx="14" ry="7" fill="#1C2B22"/>
  <ellipse cx="696" cy="494" rx="14" ry="7" fill="#1C2B22"/>
  <!-- Body / dress / top -->
  <rect x="645" y="300" width="80" height="135" rx="22" fill="#2F4A3A"/>
  <!-- Scarf / collar accent -->
  <rect x="662" y="300" width="46" height="22" rx="11" fill="#AEC1B0" opacity="0.85"/>
  <!-- Left arm (reaching toward table) -->
  <rect x="596" y="335" width="55" height="18" rx="9" fill="#2F4A3A" transform="rotate(18 596 335)"/>
  <!-- Hand left -->
  <circle cx="596" cy="350" r="10" fill="#E8C090"/>
  <!-- Right arm -->
  <rect x="723" y="330" width="40" height="15" rx="7" fill="#2F4A3A" transform="rotate(-10 723 330)"/>
  <!-- Hand right -->
  <circle cx="760" cy="333" r="9" fill="#E8C090"/>
  <!-- Head -->
  <circle cx="685" cy="268" r="42" fill="#F2D4A6"/>
  <!-- Hair (bun) -->
  <path d="M 648 260 Q 660 218 685 215 Q 710 218 722 260 Q 710 235 685 232 Q 660 235 648 260 Z" fill="#2C1A0E"/>
  <circle cx="685" cy="220" r="16" fill="#2C1A0E"/>
  <circle cx="685" cy="214" r="10" fill="#3D2B14"/>
  <!-- Eyes (warm, kind) -->
  <path d="M 672 264 Q 677 260 682 264" stroke="#2C1A0E" stroke-width="2.5" fill="none" stroke-linecap="round"/>
  <path d="M 688 264 Q 693 260 698 264" stroke="#2C1A0E" stroke-width="2.5" fill="none" stroke-linecap="round"/>
  <!-- Smile warm -->
  <path d="M 675 280 Q 685 289 695 280" stroke="#8B5E3C" stroke-width="2.5" fill="none" stroke-linecap="round"/>
  <!-- Cheeks -->
  <circle cx="665" cy="278" r="9" fill="#F4A18A" opacity="0.35"/>
  <circle cx="705" cy="278" r="9" fill="#F4A18A" opacity="0.35"/>

  <!-- Bookshelf on right wall -->
  <rect x="820" y="200" width="80" height="240" rx="6" fill="#C4A882"/>
  <rect x="826" y="206" width="68" height="8" rx="2" fill="#B89870"/>
  <rect x="826" y="282" width="68" height="8" rx="2" fill="#B89870"/>
  <rect x="826" y="358" width="68" height="8" rx="2" fill="#B89870"/>
  <!-- Books row 1 -->
  <rect x="828" y="214" width="12" height="64" rx="2" fill="#E2845F"/>
  <rect x="841" y="220" width="10" height="58" rx="2" fill="#6EB76F"/>
  <rect x="852" y="216" width="14" height="62" rx="2" fill="#2F4A3A"/>
  <rect x="867" y="222" width="10" height="56" rx="2" fill="#F6C84B"/>
  <rect x="878" y="218" width="10" height="60" rx="2" fill="#AEC1B0"/>
  <!-- Books row 2 -->
  <rect x="828" y="292" width="11" height="62" rx="2" fill="#AEC1B0"/>
  <rect x="840" y="295" width="14" height="59" rx="2" fill="#E2845F"/>
  <rect x="855" y="292" width="10" height="62" rx="2" fill="#6EB76F"/>
  <rect x="866" y="297" width="12" height="57" rx="2" fill="#2F4A3A" opacity="0.8"/>
  <rect x="879" y="293" width="11" height="61" rx="2" fill="#F6C84B" opacity="0.8"/>

  <!-- Soft vignette frame to blend edges -->
  <linearGradient id="vignL" x1="0" y1="0" x2="1" y2="0">
    <stop offset="0%" stop-color="#F4EFE3" stop-opacity="0.6"/>
    <stop offset="15%" stop-color="#F4EFE3" stop-opacity="0"/>
  </linearGradient>
  <linearGradient id="vignR" x1="0" y1="0" x2="1" y2="0">
    <stop offset="85%" stop-color="#F4EFE3" stop-opacity="0"/>
    <stop offset="100%" stop-color="#F4EFE3" stop-opacity="0.5"/>
  </linearGradient>
  <linearGradient id="vignT" x1="0" y1="0" x2="0" y2="1">
    <stop offset="0%" stop-color="#F4EFE3" stop-opacity="0.4"/>
    <stop offset="12%" stop-color="#F4EFE3" stop-opacity="0"/>
  </linearGradient>
  <rect width="900" height="675" fill="url(#vignL)"/>
  <rect width="900" height="675" fill="url(#vignR)"/>
  <rect width="900" height="675" fill="url(#vignT)"/>
</svg>
