<svg xmlns="http://www.w3.org/2000/svg" viewBox="0 0 244 56" width="244" height="56" fill="none">
  <defs>
    <style>.wm { font-family: 'Cormorant Garamond', Georgia, serif; font-size: 42px; font-weight: 500; fill: #F7F2E8; }</style>
  </defs>
  <!-- sprout -->
  <text class="wm" x="0" y="45" letter-spacing="-0.5">sprout</text>
  <!-- Botanical & mark — cream version -->
  <g transform="translate(122, 0) scale(0.651)">
    <path d="M 27 13 C 25 6 15 5 16 12 C 17 19 25 16 27 13 Z" fill="rgba(247,242,232,0.5)"/>
    <path d="M 28 14 C 40 8 56 20 51 34 C 46 48 24 46 20 56 C 14 66 20 78 34 76 C 48 74 56 62 47 56"
          stroke="#F7F2E8" stroke-width="2.5" stroke-linecap="round" stroke-linejoin="round"/>
    <path d="M 8 55 L 52 32" stroke="#F7F2E8" stroke-width="2.5" stroke-linecap="round"/>
    <path d="M 44 27 C 38 22 36 15 40 14 C 42 13 44 17 44 17 C 44 17 46 13 48 14 C 52 15 50 22 44 27 Z" fill="#E2845F"/>
    <path d="M 24 78 C 18 71 10 72 12 78 C 14 84 22 81 24 78 Z" fill="rgba(247,242,232,0.45)"/>
    <path d="M 36 77 C 42 70 50 71 48 77 C 46 83 38 80 36 77 Z" fill="rgba(247,242,232,0.45)"/>
  </g>
  <!-- vine -->
  <text class="wm" x="168" y="45" letter-spacing="-0.5">vine</text>
</svg>
