<svg xmlns="http://www.w3.org/2000/svg" viewBox="0 0 44 58" width="44" height="58" fill="none">
  <!-- Top leaf -->
  <ellipse cx="24" cy="5" rx="3.5" ry="6" fill="#AEC1B0" transform="rotate(-22 24 5)"/>
  <!-- Main & vine body -->
  <path d="M 26 9 C 24 3 16 1 11 5 C 6 9 7 17 12 20 C 17 23 22 21 22 27 C 22 33 14 37 10 42 C 6 47 9 54 18 54 C 27 54 34 47 30 42"
        stroke="#2F4A3A" stroke-width="2.3" stroke-linecap="round" stroke-linejoin="round"/>
  <!-- Cross stroke -->
  <path d="M 5 28 L 34 14" stroke="#2F4A3A" stroke-width="2.3" stroke-linecap="round"/>
  <!-- Tail sweep -->
  <path d="M 30 42 C 36 38 39 43 34 50" stroke="#2F4A3A" stroke-width="2.3" stroke-linecap="round"/>
  <!-- Terracotta heart/berry in upper loop -->
  <path d="M 17 13 C 18 11 22 11 23 13 C 24 16 22 19 19 21 C 16 19 15 16 17 13 Z" fill="#E2845F"/>
  <!-- Bottom leaves -->
  <ellipse cx="15" cy="54" rx="3.2" ry="5" fill="#AEC1B0" transform="rotate(18 15 54)"/>
  <ellipse cx="25" cy="53" rx="2.8" ry="4.5" fill="#AEC1B0" transform="rotate(-22 25 53)"/>
</svg>
